<mxfile host="Electron" agent="Mozilla/5.0 (Windows NT 10.0; Win64; x64) AppleWebKit/537.36 (KHTML, like Gecko) draw.io/26.0.9 Chrome/128.0.6613.186 Electron/32.2.5 Safari/537.36" version="26.0.9">
  <diagram name="Page-1" id="Y6coHT6UCk_hCOaI7VeL">
    <mxGraphModel dx="1034" dy="605" grid="1" gridSize="10" guides="1" tooltips="1" connect="1" arrows="1" fold="1" page="1" pageScale="1" pageWidth="850" pageHeight="1100" math="0" shadow="0">
      <root>
        <mxCell id="0" />
        <mxCell id="1" parent="0" />
        <mxCell id="vEIoK-z4KvsGi5loLmuo-8" style="edgeStyle=orthogonalEdgeStyle;rounded=0;orthogonalLoop=1;jettySize=auto;html=1;exitX=1;exitY=0.5;exitDx=0;exitDy=0;exitPerimeter=0;entryX=0;entryY=0.5;entryDx=0;entryDy=0;" edge="1" parent="1" source="vEIoK-z4KvsGi5loLmuo-1" target="vEIoK-z4KvsGi5loLmuo-2">
          <mxGeometry relative="1" as="geometry" />
        </mxCell>
        <mxCell id="vEIoK-z4KvsGi5loLmuo-1" value="USER" style="verticalLabelPosition=bottom;verticalAlign=top;html=1;shape=mxgraph.basic.smiley" vertex="1" parent="1">
          <mxGeometry x="70" y="40" width="40" height="40" as="geometry" />
        </mxCell>
        <mxCell id="vEIoK-z4KvsGi5loLmuo-9" style="edgeStyle=orthogonalEdgeStyle;rounded=0;orthogonalLoop=1;jettySize=auto;html=1;exitX=1;exitY=0.5;exitDx=0;exitDy=0;entryX=0;entryY=0.5;entryDx=0;entryDy=0;" edge="1" parent="1" source="vEIoK-z4KvsGi5loLmuo-2" target="vEIoK-z4KvsGi5loLmuo-3">
          <mxGeometry relative="1" as="geometry" />
        </mxCell>
        <mxCell id="vEIoK-z4KvsGi5loLmuo-2" value="Register" style="rounded=1;whiteSpace=wrap;html=1;" vertex="1" parent="1">
          <mxGeometry x="180" y="40" width="80" height="40" as="geometry" />
        </mxCell>
        <mxCell id="vEIoK-z4KvsGi5loLmuo-10" style="edgeStyle=orthogonalEdgeStyle;rounded=0;orthogonalLoop=1;jettySize=auto;html=1;exitX=1;exitY=0.5;exitDx=0;exitDy=0;" edge="1" parent="1" source="vEIoK-z4KvsGi5loLmuo-3" target="vEIoK-z4KvsGi5loLmuo-4">
          <mxGeometry relative="1" as="geometry" />
        </mxCell>
        <mxCell id="vEIoK-z4KvsGi5loLmuo-3" value="Login" style="rounded=1;whiteSpace=wrap;html=1;" vertex="1" parent="1">
          <mxGeometry x="320" y="40" width="80" height="40" as="geometry" />
        </mxCell>
        <mxCell id="vEIoK-z4KvsGi5loLmuo-11" style="edgeStyle=orthogonalEdgeStyle;rounded=0;orthogonalLoop=1;jettySize=auto;html=1;exitX=0.5;exitY=1;exitDx=0;exitDy=0;" edge="1" parent="1" source="vEIoK-z4KvsGi5loLmuo-4" target="vEIoK-z4KvsGi5loLmuo-5">
          <mxGeometry relative="1" as="geometry" />
        </mxCell>
        <mxCell id="vEIoK-z4KvsGi5loLmuo-12" style="edgeStyle=orthogonalEdgeStyle;rounded=0;orthogonalLoop=1;jettySize=auto;html=1;exitX=0.5;exitY=1;exitDx=0;exitDy=0;" edge="1" parent="1" source="vEIoK-z4KvsGi5loLmuo-4" target="vEIoK-z4KvsGi5loLmuo-6">
          <mxGeometry relative="1" as="geometry">
            <Array as="points">
              <mxPoint x="520" y="120" />
              <mxPoint x="655" y="120" />
            </Array>
          </mxGeometry>
        </mxCell>
        <mxCell id="vEIoK-z4KvsGi5loLmuo-4" value="Cek Ekyc" style="rounded=1;whiteSpace=wrap;html=1;" vertex="1" parent="1">
          <mxGeometry x="480" y="40" width="80" height="40" as="geometry" />
        </mxCell>
        <mxCell id="vEIoK-z4KvsGi5loLmuo-16" style="edgeStyle=orthogonalEdgeStyle;rounded=0;orthogonalLoop=1;jettySize=auto;html=1;exitX=0.5;exitY=1;exitDx=0;exitDy=0;entryX=0.5;entryY=0;entryDx=0;entryDy=0;" edge="1" parent="1" source="vEIoK-z4KvsGi5loLmuo-5" target="vEIoK-z4KvsGi5loLmuo-7">
          <mxGeometry relative="1" as="geometry" />
        </mxCell>
        <mxCell id="vEIoK-z4KvsGi5loLmuo-5" value="Ekyc Approve / Already ekyc" style="rounded=1;whiteSpace=wrap;html=1;" vertex="1" parent="1">
          <mxGeometry x="400" y="160" width="100" height="40" as="geometry" />
        </mxCell>
        <mxCell id="vEIoK-z4KvsGi5loLmuo-14" style="edgeStyle=orthogonalEdgeStyle;rounded=0;orthogonalLoop=1;jettySize=auto;html=1;exitX=1;exitY=0.5;exitDx=0;exitDy=0;entryX=0.5;entryY=1;entryDx=0;entryDy=0;" edge="1" parent="1" source="vEIoK-z4KvsGi5loLmuo-6" target="vEIoK-z4KvsGi5loLmuo-13">
          <mxGeometry relative="1" as="geometry" />
        </mxCell>
        <mxCell id="vEIoK-z4KvsGi5loLmuo-6" value="Ekyc Not Approve / Not Yet ekyc" style="rounded=1;whiteSpace=wrap;html=1;" vertex="1" parent="1">
          <mxGeometry x="600" y="155" width="110" height="50" as="geometry" />
        </mxCell>
        <mxCell id="vEIoK-z4KvsGi5loLmuo-18" style="edgeStyle=orthogonalEdgeStyle;rounded=0;orthogonalLoop=1;jettySize=auto;html=1;exitX=0.5;exitY=1;exitDx=0;exitDy=0;" edge="1" parent="1" source="vEIoK-z4KvsGi5loLmuo-7" target="vEIoK-z4KvsGi5loLmuo-17">
          <mxGeometry relative="1" as="geometry" />
        </mxCell>
        <mxCell id="vEIoK-z4KvsGi5loLmuo-7" value="Profile Auth" style="rounded=1;whiteSpace=wrap;html=1;" vertex="1" parent="1">
          <mxGeometry x="400" y="250" width="100" height="40" as="geometry" />
        </mxCell>
        <mxCell id="vEIoK-z4KvsGi5loLmuo-15" style="edgeStyle=orthogonalEdgeStyle;rounded=0;orthogonalLoop=1;jettySize=auto;html=1;exitX=0;exitY=0.5;exitDx=0;exitDy=0;" edge="1" parent="1" source="vEIoK-z4KvsGi5loLmuo-13" target="vEIoK-z4KvsGi5loLmuo-4">
          <mxGeometry relative="1" as="geometry" />
        </mxCell>
        <mxCell id="vEIoK-z4KvsGi5loLmuo-13" value="Do ekyc" style="rounded=1;whiteSpace=wrap;html=1;" vertex="1" parent="1">
          <mxGeometry x="660" y="40" width="80" height="40" as="geometry" />
        </mxCell>
        <mxCell id="vEIoK-z4KvsGi5loLmuo-17" value="Telegram BOT" style="shape=tapeData;whiteSpace=wrap;html=1;perimeter=ellipsePerimeter;" vertex="1" parent="1">
          <mxGeometry x="290" y="350" width="80" height="80" as="geometry" />
        </mxCell>
      </root>
    </mxGraphModel>
  </diagram>
</mxfile>
